<svg width="40" height="39" viewBox="0 0 40 39" fill="none" xmlns="http://www.w3.org/2000/svg">
<path d="M23.6008 17.8841C23.6008 15.8378 22.488 13.971 20.7289 12.9299C18.9339 11.8888 16.744 11.8888 14.9849 12.9299C13.1899 13.971 12.1129 15.8378 12.1129 17.8841C12.1129 19.9663 13.1899 21.833 14.9849 22.8741C16.744 23.9152 18.9339 23.9152 20.7289 22.8741C22.488 21.833 23.6008 19.9663 23.6008 17.8841ZM22.488 23.7716C21.1956 24.7768 19.5801 25.3512 17.8569 25.3512C13.7284 25.3512 10.3898 22.0125 10.3898 17.8841C10.3898 13.7915 13.7284 10.4169 17.8569 10.4169C21.9495 10.4169 25.324 13.7915 25.324 17.8841C25.324 19.6432 24.7137 21.2586 23.7085 22.551L28.5191 27.3257C28.8422 27.6847 28.8422 28.2232 28.5191 28.5463C28.1601 28.9053 27.6216 28.9053 27.2985 28.5463L22.488 23.7716Z" fill="black"/>
</svg>
